<svg width="409" height="404" viewBox="0 0 409 404" fill="none" xmlns="http://www.w3.org/2000/svg">
<path fill-rule="evenodd" clip-rule="evenodd" d="M171.434 44.2981C165.285 37.732 161.124 29.6852 161.819 20.6685C163.823 -5.31112 203.576 0.404057 211.309 13.5163C219.042 26.6286 218.123 59.889 208.129 62.2325C204.143 63.1671 195.653 60.8777 187.012 56.1394L192.436 91.048H160.409L171.434 44.2981Z" fill="#B28B67"/>
<path fill-rule="evenodd" clip-rule="evenodd" d="M181.399 30.1879C180.352 29.5331 179.101 29.1353 177.757 29.1353C174.072 29.1353 171.084 32.1247 171.084 35.2052C171.084 38.41 172.748 40.8879 175.124 41.9391C173.855 44.1958 172.579 45.8335 171.084 46.131C165.317 45.6002 157.74 32.5594 157.74 21.8515C157.74 10.1312 167.991 0 187.098 0C204.271 0 210.782 6.4416 211.118 12.1397C203.759 13.9796 190.9 14.6881 172.419 14.5677V15.7816L188.432 16.9956L191.101 24.2795C186.855 23.9911 183.821 26.6406 181.399 30.1879Z" fill="#191847"/>
<path d="M147.064 403.039C203.813 403.039 249.817 363.091 249.817 313.812C249.817 264.533 203.813 224.585 147.064 224.585C90.316 224.585 44.3123 264.533 44.3123 313.812C44.3123 363.091 90.316 403.039 147.064 403.039Z" fill="#C5CFD6"/>
<path fill-rule="evenodd" clip-rule="evenodd" d="M341.238 389.272C324.14 354.846 311.775 324.869 306.812 309.053C298.314 281.973 291.849 258.143 290.215 249.244C286.318 228.023 320.189 226.787 324.666 237.334C331.442 253.296 343.271 305.742 357.486 384.96L341.238 389.272ZM142.912 281.233C158.599 275.592 213.536 257.939 240.031 252.945C247.645 251.51 255.025 250.177 261.963 248.972C282.585 245.39 293.269 279.235 273.408 281.835C223.944 288.312 153.82 294.999 147.819 295.75C139.409 296.802 133.053 284.778 142.912 281.233Z" fill="#B28B67"/>
<path fill-rule="evenodd" clip-rule="evenodd" d="M274.62 239.658L189.767 200.362V191.808H199.858C281.95 210.838 323.899 223.033 325.705 228.394C325.724 228.452 325.742 228.51 325.758 228.568C325.799 228.617 325.84 228.666 325.88 228.716C342.149 249.071 351.892 348.443 355.09 355.884L323.915 360.115C311.99 319.886 273.837 291.861 274.85 243.68C274.576 242.266 274.507 240.926 274.62 239.658Z" fill="#1F28CF"/>
<path fill-rule="evenodd" clip-rule="evenodd" d="M196.817 262.996C189.053 261.582 181.903 260.32 175.785 259.344C136.268 253.038 124.744 233.795 131.558 191.808H204.368C216.261 194.916 278.072 218.497 310.142 231.039C331.368 239.34 324.677 269.265 312.657 277.052C312.592 277.53 312.375 277.855 311.99 278C247.33 302.38 196.179 289.588 179.091 293.675L171.187 270.993L196.817 262.996Z" fill="#2B44FF"/>
<path fill-rule="evenodd" clip-rule="evenodd" d="M147.714 277.487C143.582 277.768 140.656 278.284 138.937 279.035C136.847 279.948 133.976 281.611 130.325 284.024C131.579 286.325 142.846 307.012 164.125 346.083C170.621 345.243 173.147 342.987 171.702 339.317C170.258 335.647 169.09 332.583 168.199 330.128L166.038 295.365C165.996 294.696 165.379 294.161 164.66 294.169C164.647 294.169 164.635 294.169 164.623 294.169L158.874 294.385C155.541 291.859 153.327 289.591 152.232 287.58C151.342 285.946 150.808 283.386 150.63 279.899L150.631 279.899C150.562 278.561 149.34 277.478 147.9 277.48C147.838 277.48 147.776 277.483 147.714 277.487Z" fill="#E4E4E4"/>
<path fill-rule="evenodd" clip-rule="evenodd" d="M333.457 382.889C331.964 386.515 331.218 389.228 331.218 391.028C331.218 393.217 331.619 396.411 332.42 400.611C335.212 400.611 360.3 400.611 407.685 400.611C409.641 394.729 408.512 391.553 404.298 391.084C400.084 390.615 396.584 390.192 393.796 389.814L358.814 375.626C358.141 375.353 357.352 375.628 357.052 376.241C357.047 376.251 357.042 376.262 357.037 376.272L354.788 381.234C350.887 382.89 347.717 383.718 345.278 383.718C343.297 383.718 340.56 382.99 337.068 381.534L337.068 381.534C335.729 380.975 334.144 381.51 333.53 382.729C333.504 382.782 333.479 382.835 333.457 382.889Z" fill="#E4E4E4"/>
<path fill-rule="evenodd" clip-rule="evenodd" d="M269.686 167.688L312.252 196.124C323.797 198.957 333.443 202.483 341.188 206.701C343.018 208.218 345.23 211.29 337.641 210.759C330.053 210.228 322.045 209.98 320.998 212.335C319.951 214.689 324.543 217.505 322.427 220.682C321.016 222.8 314.349 217.489 302.428 204.75L260.276 188.849L269.686 167.688ZM77.0585 155.844L100.56 159.715C73.2836 208.955 58.6745 234.99 56.7324 237.82C52.3627 244.188 56.7739 255.662 58.4382 261.714C48.7683 263.925 52.3422 250.566 40.1085 253.538C28.9421 256.25 19.558 262.905 8.93218 254.3C7.62581 253.242 6.61995 249.886 10.9703 248.087C21.8088 243.607 37.789 235.286 40.3452 232.113C43.831 227.786 56.0688 202.363 77.0585 155.844Z" fill="#B28B67"/>
<path fill-rule="evenodd" clip-rule="evenodd" d="M279.602 170.779C285.079 170.422 291.036 171.247 297.423 173.205C300.566 174.168 302.255 177.267 301.196 180.126C300.581 181.786 299.174 183.001 297.487 183.539C298.709 184.35 299.942 185.156 301.186 185.958L290.448 205.902C245.26 185.405 202.787 169.951 183.433 136.113C176.938 124.755 179.136 86.1778 178.516 72.1435L192.788 66.8188C212.683 104.23 239.607 140.121 279.602 170.779Z" fill="#69A1AC"/>
<path fill-rule="evenodd" clip-rule="evenodd" d="M128.382 202.624C170.335 206.817 203.356 206.817 227.446 202.624C230.431 202.104 230.3 190.4 228.916 187.203C207.362 137.424 193.183 100.983 193.183 66.4075C189.228 68.2868 182.307 68.5685 172.419 67.2524C145.845 102.884 133.63 143.767 128.382 202.624Z" fill="#191847"/>
<path fill-rule="evenodd" clip-rule="evenodd" d="M120.587 208.509C119.162 207.29 118.42 205.462 118.785 203.578L119.48 199.992C119.951 197.561 122.121 195.791 124.683 195.514C125.131 193.693 125.517 191.884 125.836 190.088C128.53 174.918 123.927 160.044 124.143 145.437C102.685 162.092 83.4356 190.85 66.3946 231.712L41.1913 224.966C42.1529 221.715 43.149 218.505 44.1796 215.335C41.2706 213.832 37.8714 206.941 40.3178 205.788C42.8444 204.597 45.5209 203.759 48.3397 203.266C71.4488 139.946 109.239 93.6374 161.711 64.3406H166.353L176.887 64.3406C172.419 118.096 234.136 235.456 212.707 335.686C173.097 343.733 116.548 318.696 61.5037 338.698C63.5519 298.335 104.58 250.917 120.587 208.509Z" fill="#89C5CC"/>
<path fill-rule="evenodd" clip-rule="evenodd" d="M167.222 65.5546L160.338 84.8148L174.202 99.2533L161.672 110.6L191.985 157.817L154.916 110.694L167.222 99.2533L154.916 86.4937L167.222 65.5546Z" fill="black" fill-opacity="0.1"/>
<path fill-rule="evenodd" clip-rule="evenodd" d="M183.094 176.026C180.147 176.026 177.757 173.852 177.757 171.17C177.757 168.488 180.147 166.314 183.094 166.314C186.042 166.314 188.432 168.488 188.432 171.17C188.432 173.852 186.042 176.026 183.094 176.026ZM189.767 203.947C186.819 203.947 184.429 201.773 184.429 199.092C184.429 196.41 186.819 194.236 189.767 194.236C192.715 194.236 195.104 196.41 195.104 199.092C195.104 201.773 192.715 203.947 189.767 203.947ZM191.101 231.869C188.153 231.869 185.763 229.695 185.763 227.013C185.763 224.331 188.153 222.157 191.101 222.157C194.049 222.157 196.439 224.331 196.439 227.013C196.439 229.695 194.049 231.869 191.101 231.869Z" fill="black" fill-opacity="0.4"/>
</svg>
